Coordinates
version=1
nRows=9
nColumns=36
inDegrees=yes

Units are S.I. units (second, meters, Newtons, ...)
If the header above contains a line with 'inDegrees', this indicates whether rotational values are in degrees (yes) or radians (no).

endheader
time	pelvis_tilt	pelvis_list	pelvis_rotation	pelvis_tx	pelvis_ty	pelvis_tz	hip_flexion_r	hip_adduction_r	hip_rotation_r	knee_angle_r	knee_angle_r_beta	ankle_angle_r	subtalar_angle_r	mtp_angle_r	hip_flexion_l	hip_adduction_l	hip_rotation_l	knee_angle_l	knee_angle_l_beta	ankle_angle_l	subtalar_angle_l	mtp_angle_l	lumbar_extension	lumbar_bending	lumbar_rotation	arm_flex_r	arm_add_r	arm_rot_r	elbow_flex_r	pro_sup_r	arm_flex_l	arm_add_l	arm_rot_l	elbow_flex_l	pro_sup_l
      0.00000000	      0.97752692	      0.75574112	     12.98929654	     -0.04324687	      1.00337820	      0.25550786	     -3.14168658	     -4.11643711	     -3.27780696	      5.82525825	      0.10166994	      9.94339751	     -0.25796859	     -7.11922099	     -1.72921589	     -2.47485690	    -11.97810051	      7.56837305	      0.13209303	      7.21967473	      3.56598881	     -7.11922099	     -7.77109688	     -0.75611659	     -2.13578269	      9.22106982	    -39.47567435	     49.09618361	     66.91078762	     68.26133712	    -14.11134232	    -38.07664962	     26.61032376	     74.67285015	     75.74368017
      0.01666670	      1.05571913	      0.70414621	     11.78302872	     -0.04525971	      1.00283825	      0.25774936	     -3.44897102	     -3.98979057	     -4.10199188	      4.52946952	      0.07905416	     10.12266292	     -0.54204270	     -7.14102229	     -2.92248201	     -2.13439878	    -16.01786150	      5.91031835	      0.10315452	      8.60920463	      6.42409395	     -7.14102229	     -6.82415783	     -0.48175227	     -0.92448602	     13.26467386	    -41.70256884	     55.95842876	     69.60659351	     70.04835692	    -12.81213497	    -40.21492303	     32.27847555	     77.04671666	     75.97270471
      0.03333330	      1.47585077	      0.91875079	     11.01963126	     -0.04636431	      1.00341879	      0.25882868	     -3.16552593	     -4.40306732	     -4.58535183	      5.35138693	      0.09339932	     10.59206687	      0.10889318	     -7.19949856	     -3.49600730	     -1.60134969	    -17.83756869	      5.62810233	      0.09822892	      8.06834383	      5.30849682	     -7.19949856	     -7.26327654	     -0.59050548	     -0.66318867	     16.04848014	    -43.13587207	     60.86854615	     71.91325987	     70.30683308	    -11.86340716	    -42.16366737	     35.89606846	     79.56424518	     74.46294415
      0.05000000	      1.71411257	      0.98135824	     10.88390709	     -0.04741047	      1.00425682	      0.25913229	     -3.13005890	     -4.46937049	     -5.07009223	      5.54506918	      0.09677971	     10.26397919	     -0.38075374	     -7.22657069	     -3.75212291	     -1.26919647	    -18.42087100	      5.42350695	      0.09465805	      8.08869055	      4.75179347	     -7.22657069	     -7.65521387	     -0.61871760	     -0.88253826	     16.35816087	    -43.52952168	     61.21093233	     73.29462886	     69.75891740	    -12.13822567	    -43.29638258	     36.71793826	     81.74552570	     73.47452487
      0.06666670	      1.35396623	      1.03205383	     10.51831229	     -0.05465747	      1.00443188	      0.26296445	     -2.24498331	     -4.60937144	     -5.36419671	      5.90520258	      0.10306523	     10.02776665	     -0.53627333	     -7.27716487	     -3.21167312	     -0.95547729	    -18.48742657	      5.49643965	      0.09593097	      8.28961747	      4.07715945	     -7.27716487	     -7.35326397	     -0.75231451	     -1.06035184	     18.16923428	    -43.74598984	     64.39406235	     73.78063921	     69.98643980	    -12.56096647	    -44.11803402	     37.65712404	     82.97468934	     71.31421495
      0.08333330	      1.14165053	      0.95574513	     10.28830597	     -0.03895052	      1.00486218	      0.26252955	     -2.07286549	     -4.49944389	     -5.47771246	      5.78874341	      0.10103263	      9.68697319	     -0.65111446	     -7.29884751	     -3.27682459	     -0.80383596	    -17.95410583	      5.10245252	      0.08905460	      8.02456007	      3.02132537	     -7.29884751	     -6.84008151	     -0.77588365	     -1.00709089	     17.85770687	    -43.62221680	     64.49518469	     73.83216911	     69.23179159	    -13.08055948	    -44.22660107	     38.17690607	     83.34296227	     70.42990662
      0.10000000	      0.84066497	      0.94045617	      9.94839794	     -0.03810903	      1.00486215	      0.26276026	     -1.74294085	     -4.49459024	     -5.60512070	      5.77565104	      0.10080413	      9.35376146	     -0.55800282	     -7.31699157	     -3.24353291	     -0.66290910	    -17.95515861	      4.75462272	      0.08298382	      7.98296249	      2.87898542	     -7.31699157	     -6.34206114	     -0.88813279	     -0.67170829	     17.45950460	    -43.60090007	     64.62779807	     74.07370881	     68.86565583	    -13.52384860	    -44.50625647	     38.69877053	     83.97619096	     69.88251637
      0.11666670	      0.57470805	      0.86352688	      9.77088166	     -0.03806253	      1.00463566	      0.26306094	     -1.51008759	     -4.40887358	     -5.89627611	      5.77231534	      0.10074591	      9.14473937	     -0.40187529	     -7.33117071	     -3.19361971	     -0.64896961	    -17.96417140	      4.47416640	      0.07808893	      8.05784738	      2.87852398	     -7.33117071	     -5.73456171	     -0.88980842	     -0.44923737	     17.37745631	    -43.45919846	     65.35673473	     73.96086632	     69.30522896	    -13.41400249	    -44.66668925	     39.91781208	     83.96881926	     69.86213769
      0.13333330	      0.18574207	      0.76326765	      9.55868546	     -0.03743343	      1.00415538	      0.26304664	     -1.13995608	     -4.31939670	     -6.01168939	      5.80738194	      0.10135794	      8.92774838	     -0.56176125	     -7.34012039	     -3.02654196	     -0.64090353	    -17.78347018	      4.20416697	      0.07337656	      8.01973247	      2.45532441	     -7.34012039	     -5.01149760	     -0.88367501	     -0.26707149	     16.78488136	    -43.28646883	     65.20225623	     73.90840065	     68.92440404	    -13.87218812	    -44.37431727	     40.01185751	     83.61294237	     69.42875372
